<?xml version="1.0" encoding="UTF-8" standalone="no"?><svg xmlns="http://www.w3.org/2000/svg" xmlns:xlink="http://www.w3.org/1999/xlink" contentScriptType="application/ecmascript" contentStyleType="text/css" height="1859px" preserveAspectRatio="none" style="width:696px;height:1859px;" version="1.1" viewBox="0 0 696 1859" width="696px" zoomAndPan="magnify"><defs><filter height="300%" id="fjua5rn00j7qi" width="300%" x="-1" y="-1"><feGaussianBlur result="blurOut" stdDeviation="2.0"/><feColorMatrix in="blurOut" result="blurOut2" type="matrix" values="0 0 0 0 0 0 0 0 0 0 0 0 0 0 0 0 0 0 .4 0"/><feOffset dx="4.0" dy="4.0" in="blurOut2" result="blurOut3"/><feBlend in="SourceGraphic" in2="blurOut3" mode="normal"/></filter></defs><g><!--cluster WEKO3--><rect fill="#FFFFFF" filter="url(#fjua5rn00j7qi)" height="1795" style="stroke: #000000; stroke-width: 1.5;" width="368" x="184" y="16.5"/><text fill="#000000" font-family="sans-serif" font-size="14" font-weight="bold" lengthAdjust="spacingAndGlyphs" textLength="52" x="342" y="32.0352">WEKO3</text><ellipse cx="367.7871" cy="434.5574" fill="#FEFECE" filter="url(#fjua5rn00j7qi)" rx="78.2871" ry="18.0574" style="stroke: #A80036; stroke-width: 1.5;"/><text fill="#000000" font-family="sans-serif" font-size="14" lengthAdjust="spacingAndGlyphs" textLength="126" x="304.7871" y="439.3016">キーワード検索する</text><ellipse cx="368.1701" cy="521.534" fill="#FEFECE" filter="url(#fjua5rn00j7qi)" rx="155.6701" ry="33.534" style="stroke: #A80036; stroke-width: 1.5;"/><text fill="#000000" font-family="sans-serif" font-size="14" lengthAdjust="spacingAndGlyphs" textLength="294" x="221.1701" y="526.2782">インデックスツリーからディレクトリ検索する</text><ellipse cx="367.8163" cy="68.2633" fill="#FEFECE" filter="url(#fjua5rn00j7qi)" rx="109.3163" ry="24.2633" style="stroke: #A80036; stroke-width: 1.5;"/><text fill="#000000" font-family="sans-serif" font-size="14" lengthAdjust="spacingAndGlyphs" textLength="196" x="269.8163" y="73.0074">アイテムの詳細画面を閲覧する</text><ellipse cx="367.9831" cy="165.5966" fill="#FEFECE" filter="url(#fjua5rn00j7qi)" rx="175.9831" ry="37.5966" style="stroke: #A80036; stroke-width: 1.5;"/><text fill="#000000" font-family="sans-serif" font-size="14" lengthAdjust="spacingAndGlyphs" textLength="336" x="199.9831" y="170.3408">アイテムの詳細画面からファイルをダウンロードする</text><ellipse cx="367.9213" cy="273.3843" fill="#FEFECE" filter="url(#fjua5rn00j7qi)" rx="162.4213" ry="34.8843" style="stroke: #A80036; stroke-width: 1.5;"/><text fill="#000000" font-family="sans-serif" font-size="14" lengthAdjust="spacingAndGlyphs" textLength="308" x="213.9213" y="278.1284">アイテムの詳細画面でファイルをプレビューする</text><ellipse cx="368.2351" cy="362.747" fill="#FEFECE" filter="url(#fjua5rn00j7qi)" rx="84.2351" ry="19.247" style="stroke: #A80036; stroke-width: 1.5;"/><text fill="#000000" font-family="sans-serif" font-size="14" lengthAdjust="spacingAndGlyphs" textLength="140" x="298.2351" y="367.4912">ランキングを閲覧する</text><ellipse cx="367.7871" cy="608.5574" fill="#FEFECE" filter="url(#fjua5rn00j7qi)" rx="78.2871" ry="18.0574" style="stroke: #A80036; stroke-width: 1.5;"/><text fill="#000000" font-family="sans-serif" font-size="14" lengthAdjust="spacingAndGlyphs" textLength="126" x="304.7871" y="613.3016">アイテムを登録する</text><ellipse cx="368.0689" cy="828.7138" fill="#FEFECE" filter="url(#fjua5rn00j7qi)" rx="96.5689" ry="21.7138" style="stroke: #A80036; stroke-width: 1.5;"/><text fill="#000000" font-family="sans-serif" font-size="14" lengthAdjust="spacingAndGlyphs" textLength="168" x="284.0689" y="833.4579">アイテムタイプを作成する</text><ellipse cx="368.0689" cy="906.7138" fill="#FEFECE" filter="url(#fjua5rn00j7qi)" rx="96.5689" ry="21.7138" style="stroke: #A80036; stroke-width: 1.5;"/><text fill="#000000" font-family="sans-serif" font-size="14" lengthAdjust="spacingAndGlyphs" textLength="168" x="284.0689" y="911.4579">アイテムタイプを編集する</text><ellipse cx="367.8393" cy="983.4679" fill="#FEFECE" filter="url(#fjua5rn00j7qi)" rx="90.3393" ry="20.4679" style="stroke: #A80036; stroke-width: 1.5;"/><text fill="#000000" font-family="sans-serif" font-size="14" lengthAdjust="spacingAndGlyphs" textLength="154" x="290.8393" y="988.212">アイテムを一括管理する</text><ellipse cx="367.8163" cy="1063.2633" fill="#FEFECE" filter="url(#fjua5rn00j7qi)" rx="109.3163" ry="24.2633" style="stroke: #A80036; stroke-width: 1.5;"/><text fill="#000000" font-family="sans-serif" font-size="14" lengthAdjust="spacingAndGlyphs" textLength="196" x="269.8163" y="1068.0074">インデックスツリーを編集する</text><ellipse cx="368.0689" cy="1144.7138" fill="#FEFECE" filter="url(#fjua5rn00j7qi)" rx="96.5689" ry="21.7138" style="stroke: #A80036; stroke-width: 1.5;"/><text fill="#000000" font-family="sans-serif" font-size="14" lengthAdjust="spacingAndGlyphs" textLength="168" x="284.0689" y="1149.4579">アイテムを査読／承認する</text><ellipse cx="368.0324" cy="1217.3065" fill="#FEFECE" filter="url(#fjua5rn00j7qi)" rx="67.0324" ry="15.8065" style="stroke: #A80036; stroke-width: 1.5;"/><text fill="#000000" font-family="sans-serif" font-size="14" lengthAdjust="spacingAndGlyphs" textLength="98" x="319.0324" y="1222.0506">インポートする</text><ellipse cx="367.8393" cy="1289.4679" fill="#FEFECE" filter="url(#fjua5rn00j7qi)" rx="90.3393" ry="20.4679" style="stroke: #A80036; stroke-width: 1.5;"/><text fill="#000000" font-family="sans-serif" font-size="14" lengthAdjust="spacingAndGlyphs" textLength="154" x="290.8393" y="1294.212">ログ解析結果を閲覧する</text><ellipse cx="367.9007" cy="1368.4801" fill="#FEFECE" filter="url(#fjua5rn00j7qi)" rx="102.9007" ry="22.9801" style="stroke: #A80036; stroke-width: 1.5;"/><text fill="#000000" font-family="sans-serif" font-size="14" lengthAdjust="spacingAndGlyphs" textLength="182" x="276.9007" y="1373.2243">デザインをカスタマイズする</text><ellipse cx="368.2351" cy="680.747" fill="#FEFECE" filter="url(#fjua5rn00j7qi)" rx="84.2351" ry="19.247" style="stroke: #A80036; stroke-width: 1.5;"/><text fill="#000000" font-family="sans-serif" font-size="14" lengthAdjust="spacingAndGlyphs" textLength="140" x="298.2351" y="685.4912">ランキングを管理する</text><ellipse cx="368.2394" cy="753.6479" fill="#FEFECE" filter="url(#fjua5rn00j7qi)" rx="81.2394" ry="18.6479" style="stroke: #A80036; stroke-width: 1.5;"/><text fill="#000000" font-family="sans-serif" font-size="14" lengthAdjust="spacingAndGlyphs" textLength="133" x="301.7394" y="758.392">OAI-PMHを管理する</text><ellipse cx="367.8393" cy="1516.4679" fill="#FEFECE" filter="url(#fjua5rn00j7qi)" rx="90.3393" ry="20.4679" style="stroke: #A80036; stroke-width: 1.5;"/><text fill="#000000" font-family="sans-serif" font-size="14" lengthAdjust="spacingAndGlyphs" textLength="154" x="290.8393" y="1521.212">コミュニティを管理する</text><ellipse cx="368.0352" cy="1443.407" fill="#FEFECE" filter="url(#fjua5rn00j7qi)" rx="72.5352" ry="16.907" style="stroke: #A80036; stroke-width: 1.5;"/><text fill="#000000" font-family="sans-serif" font-size="14" lengthAdjust="spacingAndGlyphs" textLength="112" x="312.0352" y="1448.1512">ユーザを管理する</text><ellipse cx="368.1352" cy="1599.527" fill="#FEFECE" filter="url(#fjua5rn00j7qi)" rx="125.6352" ry="27.527" style="stroke: #A80036; stroke-width: 1.5;"/><text fill="#000000" font-family="sans-serif" font-size="14" lengthAdjust="spacingAndGlyphs" textLength="231" x="252.6352" y="1604.2712">OAI-PMH経由メタデータを提供する</text><ellipse cx="368.1989" cy="1688.3398" fill="#FEFECE" filter="url(#fjua5rn00j7qi)" rx="117.1989" ry="25.8398" style="stroke: #A80036; stroke-width: 1.5;"/><text fill="#000000" font-family="sans-serif" font-size="14" lengthAdjust="spacingAndGlyphs" textLength="213" x="261.6989" y="1693.0839">KBART経由で雑誌情報を提供する</text><ellipse cx="367.9381" cy="1776.5876" fill="#FEFECE" filter="url(#fjua5rn00j7qi)" rx="120.9381" ry="26.5876" style="stroke: #A80036; stroke-width: 1.5;"/><text fill="#000000" font-family="sans-serif" font-size="14" lengthAdjust="spacingAndGlyphs" textLength="221" x="257.4381" y="1781.3318">RSS経由でアイテム情報を提供する</text><!--entity ゲスト--><ellipse cx="69" cy="287" fill="#FEFECE" filter="url(#fjua5rn00j7qi)" rx="8" ry="8" style="stroke: #A80036; stroke-width: 2.0;"/><path d="M69,295 L69,322 M56,303 L82,303 M69,322 L56,337 M69,322 L82,337 " fill="none" filter="url(#fjua5rn00j7qi)" style="stroke: #A80036; stroke-width: 2.0;"/><text fill="#000000" font-family="sans-serif" font-size="14" lengthAdjust="spacingAndGlyphs" textLength="42" x="48" y="357.5352">ゲスト</text><!--entity 登録ユーザ--><ellipse cx="69" cy="577" fill="#FEFECE" filter="url(#fjua5rn00j7qi)" rx="8" ry="8" style="stroke: #A80036; stroke-width: 2.0;"/><path d="M69,585 L69,612 M56,593 L82,593 M69,612 L56,627 M69,612 L82,627 " fill="none" filter="url(#fjua5rn00j7qi)" style="stroke: #A80036; stroke-width: 2.0;"/><text fill="#000000" font-family="sans-serif" font-size="14" lengthAdjust="spacingAndGlyphs" textLength="70" x="34" y="647.5352">登録ユーザ</text><!--entity リポジトリ管理者--><ellipse cx="69" cy="992" fill="#FEFECE" filter="url(#fjua5rn00j7qi)" rx="8" ry="8" style="stroke: #A80036; stroke-width: 2.0;"/><path d="M69,1000 L69,1027 M56,1008 L82,1008 M69,1027 L56,1042 M69,1027 L82,1042 " fill="none" filter="url(#fjua5rn00j7qi)" style="stroke: #A80036; stroke-width: 2.0;"/><text fill="#000000" font-family="sans-serif" font-size="14" lengthAdjust="spacingAndGlyphs" textLength="112" x="13" y="1062.5352">リポジトリ管理者</text><!--entity システム管理者--><ellipse cx="69" cy="1390" fill="#FEFECE" filter="url(#fjua5rn00j7qi)" rx="8" ry="8" style="stroke: #A80036; stroke-width: 2.0;"/><path d="M69,1398 L69,1425 M56,1406 L82,1406 M69,1425 L56,1440 M69,1425 L82,1440 " fill="none" filter="url(#fjua5rn00j7qi)" style="stroke: #A80036; stroke-width: 2.0;"/><text fill="#000000" font-family="sans-serif" font-size="14" lengthAdjust="spacingAndGlyphs" textLength="98" x="20" y="1460.5352">システム管理者</text><!--entity IRDB--><ellipse cx="644" cy="1539" fill="#FEFECE" filter="url(#fjua5rn00j7qi)" rx="8" ry="8" style="stroke: #A80036; stroke-width: 2.0;"/><path d="M644,1547 L644,1574 M631,1555 L657,1555 M644,1574 L631,1589 M644,1574 L657,1589 " fill="none" filter="url(#fjua5rn00j7qi)" style="stroke: #A80036; stroke-width: 2.0;"/><text fill="#000000" font-family="sans-serif" font-size="14" lengthAdjust="spacingAndGlyphs" textLength="31" x="628.5" y="1609.5352">IRDB</text><!--entity ERDB_JP--><ellipse cx="644" cy="1657" fill="#FEFECE" filter="url(#fjua5rn00j7qi)" rx="8" ry="8" style="stroke: #A80036; stroke-width: 2.0;"/><path d="M644,1665 L644,1692 M631,1673 L657,1673 M644,1692 L631,1707 M644,1692 L657,1707 " fill="none" filter="url(#fjua5rn00j7qi)" style="stroke: #A80036; stroke-width: 2.0;"/><text fill="#000000" font-family="sans-serif" font-size="14" lengthAdjust="spacingAndGlyphs" textLength="54" x="617" y="1727.5352">ERDB_JP</text><!--entity RSS_Reader--><ellipse cx="644" cy="1775" fill="#FEFECE" filter="url(#fjua5rn00j7qi)" rx="8" ry="8" style="stroke: #A80036; stroke-width: 2.0;"/><path d="M644,1783 L644,1810 M631,1791 L657,1791 M644,1810 L631,1825 M644,1810 L657,1825 " fill="none" filter="url(#fjua5rn00j7qi)" style="stroke: #A80036; stroke-width: 2.0;"/><text fill="#000000" font-family="sans-serif" font-size="14" lengthAdjust="spacingAndGlyphs" textLength="80" x="604" y="1845.5352">RSS_Reader</text><!--entity コミュニティ管理者--><ellipse cx="69" cy="1508" fill="#FEFECE" filter="url(#fjua5rn00j7qi)" rx="8" ry="8" style="stroke: #A80036; stroke-width: 2.0;"/><path d="M69,1516 L69,1543 M56,1524 L82,1524 M69,1543 L56,1558 M69,1543 L82,1558 " fill="none" filter="url(#fjua5rn00j7qi)" style="stroke: #A80036; stroke-width: 2.0;"/><text fill="#000000" font-family="sans-serif" font-size="14" lengthAdjust="spacingAndGlyphs" textLength="126" x="6" y="1578.5352">コミュニティ管理者</text><!--link ゲスト to キーワード検索する--><path d="M90.2692,337.4119 C112.2025,355.8711 148.1658,383.3281 184,398.5 C219.2197,413.4117 260.8715,422.2189 295.6313,427.384 " fill="none" id="ゲスト-キーワード検索する" style="stroke: #A80036; stroke-width: 1.0;"/><!--link ゲスト to インデックスツリーからディレクトリ検索する--><path d="M90.0175,359.0595 C109.8167,393.3661 142.5953,441.3148 184,469.5 C203.346,482.6693 225.9911,492.5289 248.6511,499.9029 " fill="none" id="ゲスト-インデックスツリーからディレクトリ検索する" style="stroke: #A80036; stroke-width: 1.0;"/><!--link ゲスト to アイテムの詳細画面を閲覧する--><path d="M80.6495,276.8636 C96.2003,229.1894 128.4435,152.3045 184,110.5 C207.1709,93.0646 236.3113,82.6647 264.5246,76.5197 " fill="none" id="ゲスト-アイテムの詳細画面を閲覧する" style="stroke: #A80036; stroke-width: 1.0;"/><!--link ゲスト to アイテムの詳細画面からファイルをダウンロードする--><path d="M90.2386,295.5353 C111.8717,273.4048 147.3601,240.4265 184,220.5 C204.0634,209.5886 226.5639,200.5785 248.7606,193.2336 " fill="none" id="ゲスト-アイテムの詳細画面からファイルをダウンロードする" style="stroke: #A80036; stroke-width: 1.0;"/><!--link ゲスト to アイテムの詳細画面でファイルをプレビューする--><path d="M90.0251,315.3357 C120.399,310.7644 179.0271,301.9407 234.6408,293.5708 " fill="none" id="ゲスト-アイテムの詳細画面でファイルをプレビューする" style="stroke: #A80036; stroke-width: 1.0;"/><!--link ゲスト to ランキングを閲覧する--><path d="M90.0251,321.594 C132.4289,327.834 229.8999,342.1776 297.3587,352.1046 " fill="none" id="ゲスト-ランキングを閲覧する" style="stroke: #A80036; stroke-width: 1.0;"/><!--link 登録ユーザ to アイテムを登録する--><path d="M104.1783,608.5 C149.4092,608.5 229.2703,608.5 289.3138,608.5 " fill="none" id="登録ユーザ-アイテムを登録する" style="stroke: #A80036; stroke-width: 1.0;"/><!--link リポジトリ管理者 to アイテムタイプを作成する--><path d="M88.6619,981.9506 C107.8832,945.9823 140.5791,895.4669 184,867.5 C211.0408,850.0834 244.513,840.2956 275.4643,834.8446 " fill="none" id="リポジトリ管理者-アイテムタイプを作成する" style="stroke: #A80036; stroke-width: 1.0;"/><!--link リポジトリ管理者 to アイテムタイプを編集する--><path d="M121.1982,981.8244 C140.0716,968.499 162.1357,954.8067 184,945.5 C215.3975,932.1355 251.8218,923.1832 283.9372,917.268 " fill="none" id="リポジトリ管理者-アイテムタイプを編集する" style="stroke: #A80036; stroke-width: 1.0;"/><!--link リポジトリ管理者 to アイテムを一括管理する--><path d="M125.2396,1015.9763 C171.7603,1009.7528 238.3407,1000.8457 290.0116,993.9332 " fill="none" id="リポジトリ管理者-アイテムを一括管理する" style="stroke: #A80036; stroke-width: 1.0;"/><!--link リポジトリ管理者 to インデックスツリーを編集する--><path d="M125.2396,1031.0237 C167.0236,1036.6135 224.9904,1044.3683 273.8017,1050.8982 " fill="none" id="リポジトリ管理者-インデックスツリーを編集する" style="stroke: #A80036; stroke-width: 1.0;"/><!--link リポジトリ管理者 to アイテムを査読／承認する--><path d="M117.7913,1065.0427 C137.2972,1079.7805 160.6541,1095.2379 184,1105.5 C215.0893,1119.1659 251.2857,1128.1648 283.3088,1134.0332 " fill="none" id="リポジトリ管理者-アイテムを査読／承認する" style="stroke: #A80036; stroke-width: 1.0;"/><!--link リポジトリ管理者 to インポートする--><path d="M87.6667,1065.3027 C106.5091,1102.4386 139.2218,1155.1035 184,1183.5 C218.5667,1205.4208 263.6805,1213.9998 300.5854,1217.06 " fill="none" id="リポジトリ管理者-インポートする" style="stroke: #A80036; stroke-width: 1.0;"/><!--link リポジトリ管理者 to ログ解析結果を閲覧する--><path d="M78.439,1065.3725 C92.3708,1117.1337 123.5807,1204.0549 184,1250.5 C210.795,1271.0977 245.9996,1281.415 278.4341,1286.3978 " fill="none" id="リポジトリ管理者-ログ解析結果を閲覧する" style="stroke: #A80036; stroke-width: 1.0;"/><!--link リポジトリ管理者 to デザインをカスタマイズする--><path d="M72.4598,1065.1689 C80.2568,1131.16 105.2261,1259.215 184,1327.5 C206.8751,1347.3293 237.2421,1358.1817 266.7003,1363.9555 " fill="none" id="リポジトリ管理者-デザインをカスタマイズする" style="stroke: #A80036; stroke-width: 1.0;"/><!--link リポジトリ管理者 to ランキングを管理する--><path d="M72.1464,981.9116 C79.5178,915.3879 103.9198,785.6207 184,717.5 C211.4249,694.1708 249.4561,684.0877 283.8278,680.1621 " fill="none" id="リポジトリ管理者-ランキングを管理する" style="stroke: #A80036; stroke-width: 1.0;"/><!--link リポジトリ管理者 to OAI-PMHを管理する--><path d="M77.5918,981.5964 C90.8151,928.2831 121.4708,837.3922 184,789.5 C213.0715,767.2336 252.1258,757.585 286.7746,753.7644 " fill="none" id="リポジトリ管理者-OAI-PMHを管理する" style="stroke: #A80036; stroke-width: 1.0;"/><!--link コミュニティ管理者 to コミュニティを管理する--><path d="M132.0449,1534.6504 C175.6495,1531.2962 234.2045,1526.792 282.0733,1523.1097 " fill="none" id="コミュニティ管理者-コミュニティを管理する" style="stroke: #A80036; stroke-width: 1.0;"/><!--link システム管理者 to ユーザを管理する--><path d="M118.039,1425.1082 C167.2444,1428.7287 243.4734,1434.3375 298.8172,1438.4096 " fill="none" id="システム管理者-ユーザを管理する" style="stroke: #A80036; stroke-width: 1.0;"/><!--link OAI-PMH経由メタデータを提供する to IRDB--><path d="M481.4546,1587.579 C537.9533,1581.6426 600.1236,1575.1102 628.4249,1572.1365 " fill="none" id="OAI-PMH経由メタデータを提供する-IRDB" style="stroke: #A80036; stroke-width: 1.0;"/><!--link KBART経由で雑誌情報を提供する to ERDB_JP--><path d="M485.0488,1688.5 C533.8268,1688.5 586.1802,1688.5 616.9625,1688.5 " fill="none" id="KBART経由で雑誌情報を提供する-ERDB_JP" style="stroke: #A80036; stroke-width: 1.0;"/><!--link RSS経由でアイテム情報を提供する to RSS_Reader--><path d="M476.6863,1788.3137 C521.4888,1793.1836 570.6129,1798.5231 603.9692,1802.1488 " fill="none" id="RSS経由でアイテム情報を提供する-RSS_Reader" style="stroke: #A80036; stroke-width: 1.0;"/><!--
@startuml



left to right direction
skinparam packageStyle rectangle

actor ゲスト
actor 登録ユーザ
actor リポジトリ管理者
actor システム管理者
actor IRDB 
actor ERDB_JP
actor RSS_Reader

actor コミュニティ管理者

rectangle WEKO3 {

ゲスト - - (キーワード検索する)
ゲスト - - (インデックスツリーからディレクトリ検索する)
ゲスト - - (アイテムの詳細画面を閲覧する)
ゲスト - - (アイテムの詳細画面からファイルをダウンロードする)
ゲスト - - (アイテムの詳細画面でファイルをプレビューする)
ゲスト - - (ランキングを閲覧する)

登録ユーザ - - (アイテムを登録する)

リポジトリ管理者 - - (アイテムタイプを作成する)
リポジトリ管理者 - - (アイテムタイプを編集する)
リポジトリ管理者 - - (アイテムを一括管理する)
リポジトリ管理者 - - (インデックスツリーを編集する)
リポジトリ管理者 - - (アイテムを査読／承認する)
リポジトリ管理者 - - (インポートする)
リポジトリ管理者 - - (ログ解析結果を閲覧する)
リポジトリ管理者 - - (デザインをカスタマイズする)
リポジトリ管理者 - - (ランキングを管理する)
リポジトリ管理者 - - (OAI-PMHを管理する)

コミュニティ管理者 - - (コミュニティを管理する)

システム管理者  - - (ユーザを管理する)

(OAI-PMH経由メタデータを提供する) - - IRDB
(KBART経由で雑誌情報を提供する) - - ERDB_JP
(RSS経由でアイテム情報を提供する) - -  RSS_Reader

}
@enduml

PlantUML version 1.2019.09(Tue Aug 27 01:19:51 JST 2019)
(GPL source distribution)
Java Runtime: Java(TM) SE Runtime Environment
JVM: Java HotSpot(TM) 64-Bit Server VM
Java Version: 1.8.0_131-b11
Operating System: Mac OS X
OS Version: 10.14.6
Default Encoding: UTF-8
Language: en
Country: US
--></g></svg>