<?xml version="1.0" encoding="UTF-8" standalone="no"?><svg xmlns="http://www.w3.org/2000/svg" xmlns:xlink="http://www.w3.org/1999/xlink" contentScriptType="application/ecmascript" contentStyleType="text/css" height="1400px" preserveAspectRatio="none" style="width:563px;height:1400px;" version="1.1" viewBox="0 0 563 1400" width="563px" zoomAndPan="magnify"><defs><filter height="300%" id="f165xk561c3j7b" width="300%" x="-1" y="-1"><feGaussianBlur result="blurOut" stdDeviation="2.0"/><feColorMatrix in="blurOut" result="blurOut2" type="matrix" values="0 0 0 0 0 0 0 0 0 0 0 0 0 0 0 0 0 0 .4 0"/><feOffset dx="4.0" dy="4.0" in="blurOut2" result="blurOut3"/><feBlend in="SourceGraphic" in2="blurOut3" mode="normal"/></filter></defs><g><!--cluster WEKO3--><rect fill="#FFFFFF" filter="url(#f165xk561c3j7b)" height="1300" style="stroke: #000000; stroke-width: 1.5;" width="235" x="184" y="16.5"/><text fill="#000000" font-family="sans-serif" font-size="14" font-weight="bold" lengthAdjust="spacingAndGlyphs" textLength="52" x="275.5" y="32.0352">WEKO3</text><ellipse cx="301.5324" cy="59.3065" fill="#FEFECE" filter="url(#f165xk561c3j7b)" rx="67.0324" ry="15.8065" style="stroke: #A80036; stroke-width: 1.5;"/><text fill="#000000" font-family="sans-serif" font-size="14" lengthAdjust="spacingAndGlyphs" textLength="98" x="252.5324" y="64.0506">キーワード検索</text><ellipse cx="301.3163" cy="135.2633" fill="#FEFECE" filter="url(#f165xk561c3j7b)" rx="109.3163" ry="24.2633" style="stroke: #A80036; stroke-width: 1.5;"/><text fill="#000000" font-family="sans-serif" font-size="14" lengthAdjust="spacingAndGlyphs" textLength="196" x="203.3163" y="140.0074">ツリーからのディレクトリ検索</text><ellipse cx="301.5352" cy="212.407" fill="#FEFECE" filter="url(#f165xk561c3j7b)" rx="72.5352" ry="16.907" style="stroke: #A80036; stroke-width: 1.5;"/><text fill="#000000" font-family="sans-serif" font-size="14" lengthAdjust="spacingAndGlyphs" textLength="112" x="245.5352" y="217.1512">アイテム詳細閲覧</text><ellipse cx="301.5324" cy="280.3065" fill="#FEFECE" filter="url(#f165xk561c3j7b)" rx="67.0324" ry="15.8065" style="stroke: #A80036; stroke-width: 1.5;"/><text fill="#000000" font-family="sans-serif" font-size="14" lengthAdjust="spacingAndGlyphs" textLength="98" x="252.5324" y="285.0506">ランキング閲覧</text><ellipse cx="301.3485" cy="346.2697" fill="#FEFECE" filter="url(#f165xk561c3j7b)" rx="61.8485" ry="14.7697" style="stroke: #A80036; stroke-width: 1.5;"/><text fill="#000000" font-family="sans-serif" font-size="14" lengthAdjust="spacingAndGlyphs" textLength="84" x="259.3485" y="351.0138">アイテム登録</text><ellipse cx="301.5689" cy="418.7138" fill="#FEFECE" filter="url(#f165xk561c3j7b)" rx="96.5689" ry="21.7138" style="stroke: #A80036; stroke-width: 1.5;"/><text fill="#000000" font-family="sans-serif" font-size="14" lengthAdjust="spacingAndGlyphs" textLength="168" x="217.5689" y="423.4579">登録アイテムワークフロー</text><ellipse cx="301.5689" cy="496.7138" fill="#FEFECE" filter="url(#f165xk561c3j7b)" rx="96.5689" ry="21.7138" style="stroke: #A80036; stroke-width: 1.5;"/><text fill="#000000" font-family="sans-serif" font-size="14" lengthAdjust="spacingAndGlyphs" textLength="168" x="217.5689" y="501.4579">アイテムタイプ作成・編集</text><ellipse cx="301.5352" cy="570.407" fill="#FEFECE" filter="url(#f165xk561c3j7b)" rx="72.5352" ry="16.907" style="stroke: #A80036; stroke-width: 1.5;"/><text fill="#000000" font-family="sans-serif" font-size="14" lengthAdjust="spacingAndGlyphs" textLength="112" x="245.5352" y="575.1512">アイテム一括管理</text><ellipse cx="301.4975" cy="637.659" fill="#FEFECE" filter="url(#f165xk561c3j7b)" rx="52.4975" ry="14.659" style="stroke: #A80036; stroke-width: 1.5;"/><text fill="#000000" font-family="sans-serif" font-size="14" lengthAdjust="spacingAndGlyphs" textLength="70" x="266.4975" y="642.4031">ツリー編集</text><ellipse cx="301.4975" cy="701.659" fill="#FEFECE" filter="url(#f165xk561c3j7b)" rx="52.4975" ry="14.659" style="stroke: #A80036; stroke-width: 1.5;"/><text fill="#000000" font-family="sans-serif" font-size="14" lengthAdjust="spacingAndGlyphs" textLength="70" x="266.4975" y="706.4031">査読／承認</text><ellipse cx="301.4975" cy="765.659" fill="#FEFECE" filter="url(#f165xk561c3j7b)" rx="52.4975" ry="14.659" style="stroke: #A80036; stroke-width: 1.5;"/><text fill="#000000" font-family="sans-serif" font-size="14" lengthAdjust="spacingAndGlyphs" textLength="70" x="266.4975" y="770.4031">インポート</text><ellipse cx="301.3485" cy="830.2697" fill="#FEFECE" filter="url(#f165xk561c3j7b)" rx="61.8485" ry="14.7697" style="stroke: #A80036; stroke-width: 1.5;"/><text fill="#000000" font-family="sans-serif" font-size="14" lengthAdjust="spacingAndGlyphs" textLength="84" x="259.3485" y="835.0138">ログ解析閲覧</text><ellipse cx="301.7351" cy="899.747" fill="#FEFECE" filter="url(#f165xk561c3j7b)" rx="84.2351" ry="19.247" style="stroke: #A80036; stroke-width: 1.5;"/><text fill="#000000" font-family="sans-serif" font-size="14" lengthAdjust="spacingAndGlyphs" textLength="140" x="231.7351" y="904.4912">デザインカスタマイズ</text><ellipse cx="301.5324" cy="969.3065" fill="#FEFECE" filter="url(#f165xk561c3j7b)" rx="67.0324" ry="15.8065" style="stroke: #A80036; stroke-width: 1.5;"/><text fill="#000000" font-family="sans-serif" font-size="14" lengthAdjust="spacingAndGlyphs" textLength="98" x="252.5324" y="974.0506">ランキング管理</text><ellipse cx="301.3954" cy="1036.2791" fill="#FEFECE" filter="url(#f165xk561c3j7b)" rx="64.3954" ry="15.2791" style="stroke: #A80036; stroke-width: 1.5;"/><text fill="#000000" font-family="sans-serif" font-size="14" lengthAdjust="spacingAndGlyphs" textLength="91" x="255.8954" y="1041.0232">OAI-PMH管理</text><ellipse cx="301.4975" cy="1101.659" fill="#FEFECE" filter="url(#f165xk561c3j7b)" rx="52.4975" ry="14.659" style="stroke: #A80036; stroke-width: 1.5;"/><text fill="#000000" font-family="sans-serif" font-size="14" lengthAdjust="spacingAndGlyphs" textLength="70" x="266.4975" y="1106.4031">ユーザ管理</text><ellipse cx="301.5477" cy="1165.659" fill="#FEFECE" filter="url(#f165xk561c3j7b)" rx="47.5477" ry="14.659" style="stroke: #A80036; stroke-width: 1.5;"/><text fill="#000000" font-family="sans-serif" font-size="14" lengthAdjust="spacingAndGlyphs" textLength="63" x="270.0477" y="1170.4031">OAI-PMH</text><ellipse cx="301.3198" cy="1229.659" fill="#FEFECE" filter="url(#f165xk561c3j7b)" rx="34.8198" ry="14.659" style="stroke: #A80036; stroke-width: 1.5;"/><text fill="#000000" font-family="sans-serif" font-size="14" lengthAdjust="spacingAndGlyphs" textLength="45" x="278.8198" y="1234.4031">KBART</text><ellipse cx="301.6777" cy="1293.659" fill="#FEFECE" filter="url(#f165xk561c3j7b)" rx="20.6777" ry="14.659" style="stroke: #A80036; stroke-width: 1.5;"/><text fill="#000000" font-family="sans-serif" font-size="14" lengthAdjust="spacingAndGlyphs" textLength="25" x="289.1777" y="1298.4031">RSS</text><!--entity ゲスト--><ellipse cx="69" cy="143" fill="#FEFECE" filter="url(#f165xk561c3j7b)" rx="8" ry="8" style="stroke: #A80036; stroke-width: 2.0;"/><path d="M69,151 L69,178 M56,159 L82,159 M69,178 L56,193 M69,178 L82,193 " fill="none" filter="url(#f165xk561c3j7b)" style="stroke: #A80036; stroke-width: 2.0;"/><text fill="#000000" font-family="sans-serif" font-size="14" lengthAdjust="spacingAndGlyphs" textLength="42" x="48" y="213.5352">ゲスト</text><!--entity 登録ユーザ--><ellipse cx="69" cy="351" fill="#FEFECE" filter="url(#f165xk561c3j7b)" rx="8" ry="8" style="stroke: #A80036; stroke-width: 2.0;"/><path d="M69,359 L69,386 M56,367 L82,367 M69,386 L56,401 M69,386 L82,401 " fill="none" filter="url(#f165xk561c3j7b)" style="stroke: #A80036; stroke-width: 2.0;"/><text fill="#000000" font-family="sans-serif" font-size="14" lengthAdjust="spacingAndGlyphs" textLength="70" x="34" y="421.5352">登録ユーザ</text><!--entity リポジトリ管理者--><ellipse cx="69" cy="734" fill="#FEFECE" filter="url(#f165xk561c3j7b)" rx="8" ry="8" style="stroke: #A80036; stroke-width: 2.0;"/><path d="M69,742 L69,769 M56,750 L82,750 M69,769 L56,784 M69,769 L82,784 " fill="none" filter="url(#f165xk561c3j7b)" style="stroke: #A80036; stroke-width: 2.0;"/><text fill="#000000" font-family="sans-serif" font-size="14" lengthAdjust="spacingAndGlyphs" textLength="112" x="13" y="804.5352">リポジトリ管理者</text><!--entity システム管理者--><ellipse cx="69" cy="1070" fill="#FEFECE" filter="url(#f165xk561c3j7b)" rx="8" ry="8" style="stroke: #A80036; stroke-width: 2.0;"/><path d="M69,1078 L69,1105 M56,1086 L82,1086 M69,1105 L56,1120 M69,1105 L82,1120 " fill="none" filter="url(#f165xk561c3j7b)" style="stroke: #A80036; stroke-width: 2.0;"/><text fill="#000000" font-family="sans-serif" font-size="14" lengthAdjust="spacingAndGlyphs" textLength="98" x="20" y="1140.5352">システム管理者</text><!--entity IRDB--><ellipse cx="511" cy="1080" fill="#FEFECE" filter="url(#f165xk561c3j7b)" rx="8" ry="8" style="stroke: #A80036; stroke-width: 2.0;"/><path d="M511,1088 L511,1115 M498,1096 L524,1096 M511,1115 L498,1130 M511,1115 L524,1130 " fill="none" filter="url(#f165xk561c3j7b)" style="stroke: #A80036; stroke-width: 2.0;"/><text fill="#000000" font-family="sans-serif" font-size="14" lengthAdjust="spacingAndGlyphs" textLength="31" x="495.5" y="1150.5352">IRDB</text><!--entity ERDB_JP--><ellipse cx="511" cy="1198" fill="#FEFECE" filter="url(#f165xk561c3j7b)" rx="8" ry="8" style="stroke: #A80036; stroke-width: 2.0;"/><path d="M511,1206 L511,1233 M498,1214 L524,1214 M511,1233 L498,1248 M511,1233 L524,1248 " fill="none" filter="url(#f165xk561c3j7b)" style="stroke: #A80036; stroke-width: 2.0;"/><text fill="#000000" font-family="sans-serif" font-size="14" lengthAdjust="spacingAndGlyphs" textLength="54" x="484" y="1268.5352">ERDB_JP</text><!--entity RSS_Reader--><ellipse cx="511" cy="1316" fill="#FEFECE" filter="url(#f165xk561c3j7b)" rx="8" ry="8" style="stroke: #A80036; stroke-width: 2.0;"/><path d="M511,1324 L511,1351 M498,1332 L524,1332 M511,1351 L498,1366 M511,1351 L524,1366 " fill="none" filter="url(#f165xk561c3j7b)" style="stroke: #A80036; stroke-width: 2.0;"/><text fill="#000000" font-family="sans-serif" font-size="14" lengthAdjust="spacingAndGlyphs" textLength="80" x="471" y="1386.5352">RSS_Reader</text><!--entity コミュニティ管理者--><ellipse cx="69" cy="25" fill="#FEFECE" filter="url(#f165xk561c3j7b)" rx="8" ry="8" style="stroke: #A80036; stroke-width: 2.0;"/><path d="M69,33 L69,60 M56,41 L82,41 M69,60 L56,75 M69,60 L82,75 " fill="none" filter="url(#f165xk561c3j7b)" style="stroke: #A80036; stroke-width: 2.0;"/><text fill="#000000" font-family="sans-serif" font-size="14" lengthAdjust="spacingAndGlyphs" textLength="126" x="6" y="95.5352">コミュニティ管理者</text><!--link ゲスト to キーワード検索--><path d="M90.1137,156.346 C112.2094,138.1683 148.5569,110.5185 184,93.5 C205.1537,83.3427 229.9377,75.6194 251.2768,70.1212 " fill="none" id="ゲスト-キーワード検索" style="stroke: #A80036; stroke-width: 1.0;"/><!--link ゲスト to ツリーからのディレクトリ検索--><path d="M90.0429,170.9702 C117.9323,166.292 168.8543,157.7503 213.7383,150.2213 " fill="none" id="ゲスト-ツリーからのディレクトリ検索" style="stroke: #A80036; stroke-width: 1.0;"/><!--link ゲスト to アイテム詳細閲覧--><path d="M90.0429,177.9393 C124.0244,183.4932 192.1997,194.6359 241.9839,202.7726 " fill="none" id="ゲスト-アイテム詳細閲覧" style="stroke: #A80036; stroke-width: 1.0;"/><!--link ゲスト to ランキング閲覧--><path d="M90.0385,190.1925 C112.3659,206.2271 149.1648,230.9216 184,246.5 C205.7123,256.2098 230.9165,263.9313 252.4014,269.5458 " fill="none" id="ゲスト-ランキング閲覧" style="stroke: #A80036; stroke-width: 1.0;"/><!--link 登録ユーザ to アイテム登録--><path d="M104.0593,377.0715 C142.4971,371.1198 204.5886,361.5056 248.8755,354.6483 " fill="none" id="登録ユーザ-アイテム登録" style="stroke: #A80036; stroke-width: 1.0;"/><!--link 登録ユーザ to 登録アイテムワークフロー--><path d="M104.0593,387.9285 C135.1394,392.7409 181.6843,399.9479 221.777,406.1558 " fill="none" id="登録ユーザ-登録アイテムワークフロー" style="stroke: #A80036; stroke-width: 1.0;"/><!--link リポジトリ管理者 to アイテムタイプ作成・編集--><path d="M79.2721,723.6997 C93.9976,672.318 125.9587,585.7741 184,535.5 C196.8347,524.3829 212.9375,516.4132 229.0691,510.7069 " fill="none" id="リポジトリ管理者-アイテムタイプ作成・編集" style="stroke: #A80036; stroke-width: 1.0;"/><!--link リポジトリ管理者 to アイテム一括管理--><path d="M88.9697,723.7337 C108.3957,687.4073 141.2191,635.9481 184,605.5 C200.9945,593.4046 222.1967,585.4406 241.8946,580.2175 " fill="none" id="リポジトリ管理者-アイテム一括管理" style="stroke: #A80036; stroke-width: 1.0;"/><!--link リポジトリ管理者 to ツリー編集--><path d="M110.0318,723.7731 C130.6808,704.8329 157.0203,683.5714 184,669.5 C206.495,657.7676 233.7188,650.0031 256.2954,645.0645 " fill="none" id="リポジトリ管理者-ツリー編集" style="stroke: #A80036; stroke-width: 1.0;"/><!--link リポジトリ管理者 to 査読／承認--><path d="M125.1352,749.8132 C143.8515,744.6007 164.8187,738.7806 184,733.5 C210.703,726.1487 240.8452,717.9416 263.9145,711.6796 " fill="none" id="リポジトリ管理者-査読／承認" style="stroke: #A80036; stroke-width: 1.0;"/><!--link リポジトリ管理者 to インポート--><path d="M125.2818,765.5 C162.9117,765.5 212.0859,765.5 248.9237,765.5 " fill="none" id="リポジトリ管理者-インポート" style="stroke: #A80036; stroke-width: 1.0;"/><!--link リポジトリ管理者 to ログ解析閲覧--><path d="M125.2818,781.2347 C167.0779,792.9196 223.116,808.5862 260.6731,819.086 " fill="none" id="リポジトリ管理者-ログ解析閲覧" style="stroke: #A80036; stroke-width: 1.0;"/><!--link リポジトリ管理者 to デザインカスタマイズ--><path d="M110.2119,807.2104 C130.902,826.2451 157.224,847.7719 184,862.5 C202.0832,872.4466 223.2294,880.1519 242.5598,885.8922 " fill="none" id="リポジトリ管理者-デザインカスタマイズ" style="stroke: #A80036; stroke-width: 1.0;"/><!--link リポジトリ管理者 to ランキング管理--><path d="M86.9956,807.3438 C105.7555,846.1093 138.7586,902.5932 184,935.5 C201.5172,948.2413 223.7288,956.227 244.1131,961.2239 " fill="none" id="リポジトリ管理者-ランキング管理" style="stroke: #A80036; stroke-width: 1.0;"/><!--link リポジトリ管理者 to OAI-PMH管理--><path d="M78.1099,807.0852 C91.8935,860.1566 123.1541,951.2137 184,1002.5 C200.6435,1016.5286 222.7959,1024.7739 243.3776,1029.6183 " fill="none" id="リポジトリ管理者-OAI-PMH管理" style="stroke: #A80036; stroke-width: 1.0;"/><!--link システム管理者 to ユーザ管理--><path d="M118.0232,1101.5 C156.3929,1101.5 209.6499,1101.5 248.9056,1101.5 " fill="none" id="システム管理者-ユーザ管理" style="stroke: #A80036; stroke-width: 1.0;"/><!--link OAI-PMH to IRDB--><path d="M337.9921,1156.0939 C384.299,1144.158 462.1281,1124.0971 495.2802,1115.5519 " fill="none" id="OAI-PMH-IRDB" style="stroke: #A80036; stroke-width: 1.0;"/><!--link KBART to ERDB_JP--><path d="M336.5656,1229.5 C378.0337,1229.5 446.1672,1229.5 483.8364,1229.5 " fill="none" id="KBART-ERDB_JP" style="stroke: #A80036; stroke-width: 1.0;"/><!--link RSS to RSS_Reader--><path d="M320.8337,1298.4834 C354.7679,1307.2301 425.707,1325.5152 470.6993,1337.1122 " fill="none" id="RSS-RSS_Reader" style="stroke: #A80036; stroke-width: 1.0;"/><!--
@startuml



left to right direction
skinparam packageStyle rectangle

actor ゲスト
actor 登録ユーザ
actor リポジトリ管理者
actor システム管理者
actor IRDB 
actor ERDB_JP
actor RSS_Reader

actor コミュニティ管理者

rectangle WEKO3 {

ゲスト - - (キーワード検索)
ゲスト - - (ツリーからのディレクトリ検索)
ゲスト - - (アイテム詳細閲覧)
ゲスト - - (ランキング閲覧)

登録ユーザ - - (アイテム登録)
登録ユーザ - - (登録アイテムワークフロー)

リポジトリ管理者 - - (アイテムタイプ作成・編集)
リポジトリ管理者 - - (アイテム一括管理)
リポジトリ管理者 - - (ツリー編集)
リポジトリ管理者 - - (査読／承認)
リポジトリ管理者 - - (インポート)
リポジトリ管理者 - - (ログ解析閲覧)
リポジトリ管理者 - - (デザインカスタマイズ)
リポジトリ管理者 - - (ランキング管理)
リポジトリ管理者 - - (OAI-PMH管理)

システム管理者  - - (ユーザ管理)

(OAI-PMH) - - IRDB
(KBART) - - ERDB_JP
(RSS) - -  RSS_Reader

}
@enduml

PlantUML version 1.2019.09(Tue Aug 27 01:19:51 JST 2019)
(GPL source distribution)
Java Runtime: Java(TM) SE Runtime Environment
JVM: Java HotSpot(TM) 64-Bit Server VM
Java Version: 1.8.0_131-b11
Operating System: Mac OS X
OS Version: 10.14.6
Default Encoding: UTF-8
Language: en
Country: US
--></g></svg>